# xmcd
#
# Track frame offsets: 
#        150
#        19109
#        39436
#        57952
#        79661
#        93498
#        112463
#        125064
#        146372
#        168774
#        184823
#        205941
#
# Disc length: 2968 seconds
#
# Revision: 0
# Processed by: cddbd v1.5.2PL0 Copyright (c) Steve Scherf et al.
# Submitted via: ExactAudioCopy v0.99pb5
#
DISCID=a50b960c
DTITLE=Rita Chiarelli - Sweet Paradise
DYEAR=2010
DGENRE=Blues
TTITLE0=I Believe
TTITLE1=Rest My Bones
TTITLE2=Home
TTITLE3=Light The Fire
TTITLE4=French Kiss
TTITLE5=Stone By Stone
TTITLE6=If It Was Love
TTITLE7=Going Down To New Orleans
TTITLE8=1000 Miles
TTITLE9=Back To Blue
TTITLE10=Cowboy's Lullabye
TTITLE11=If It Was Love (reprise)
EXTD=
EXTT0=
EXTT1=
EXTT2=
EXTT3=
EXTT4=
EXTT5=
EXTT6=
EXTT7=
EXTT8=
EXTT9=
EXTT10=
EXTT11=
PLAYORDER=
